<?xml version='1.0' encoding='iso-8859-1'?>
<!DOCTYPE svg PUBLIC '-//W3C//DTD SVG 1.1//EN' 'http://www.w3.org/Graphics/SVG/1.1/DTD/svg11.dtd'>
<svg version="1.1" xmlns="http://www.w3.org/2000/svg" viewBox="0 0 434.422 434.422" xmlns:xlink="http://www.w3.org/1999/xlink" enable-background="new 0 0 434.422 434.422">
  <g>
    <path d="m102.211,319.148h230c5.523,0 10-4.477 10-10v-263.148c0-5.523-4.477-10-10-10h-230c-5.523,0-10,4.477-10,10v263.148c-1.42109e-14,5.523 4.477,10 10,10zm10-20v-17.148h210v17.148h-210zm210-243.148v206h-210v-206h210z"/>
    <path d="m368.211,0h-302c-5.523,0-10,4.477-10,10v414.422c0,5.523 4.477,10 10,10h36c5.523,0 10-4.477 10-10v-64.844h210v64.844c0,5.523 4.477,10 10,10h36c5.523,0 10-4.477 10-10v-414.422c0-5.523-4.477-10-10-10zm-10,414.422h-16v-64.844c0-5.523-4.477-10-10-10h-230c-5.523,0-10,4.477-10,10v64.844h-16v-394.422h282v394.422z"/>
    <path d="m156.211,110h122c5.523,0 10-4.477 10-10s-4.477-10-10-10h-122c-5.523,0-10,4.477-10,10s4.477,10 10,10z"/>
    <path d="m156.211,165h122c5.523,0 10-4.477 10-10s-4.477-10-10-10h-122c-5.523,0-10,4.477-10,10s4.477,10 10,10z"/>
    <path d="m156.211,220h122c5.523,0 10-4.477 10-10s-4.477-10-10-10h-122c-5.523,0-10,4.477-10,10s4.477,10 10,10z"/>
  </g>
</svg>
